<?xml version="1.0" encoding="UTF-8" standalone="no"?>
<svg
   width="252.756"
   height="422.5907"
   viewBox="0 0 252.756 422.59071"
   version="1.1"
   id="svg1581"
   xmlns="http://www.w3.org/2000/svg">
  <defs
     id="defs1512">
    <style
       id="style1510">
      .cls-1 {
        fill: #edb9a3;
      }

      .cls-2 {
        fill: #e8b29b;
      }

      .cls-3 {
        fill: #df1a16;
      }

      .cls-4 {
        fill: #cf1915;
      }

      .cls-5 {
        fill: #ddd5d2;
      }

      .cls-6 {
        fill: #333d63;
      }

      .cls-7 {
        fill: #263056;
      }

      .cls-8 {
        fill: #039960;
      }

      .cls-9 {
        fill: #028151;
      }

      .cls-10 {
        fill: #ccb050;
      }

      .cls-11 {
        fill: #e8a68a;
      }

      .cls-12 {
        fill: #e19e82;
      }

      .cls-13 {
        fill: #fff;
      }

      .cls-14 {
        fill: #322a28;
      }

      .cls-15 {
        fill: #b57e67;
      }

      .cls-16 {
        fill: #c55d3a;
      }

      .cls-17 {
        fill: #e69674;
      }

      .cls-18 {
        fill: #ba5736;
      }

      .cls-19 {
        fill: #3d3533;
      }
    </style>
  </defs>
  <g
     id="karakter-man_2"
     transform="translate(-3.0517577e-7,-0.00154037)">
    <g
       id="Group_5064"
       data-name="Group 5064"
       transform="translate(15.148)">
      <circle
         id="Ellipse_557"
         data-name="Ellipse 557"
         class="cls-13"
         cx="1.962"
         cy="1.962"
         transform="translate(60.107,99.462)"
         r="1.962" />
      <circle
         id="Ellipse_560"
         data-name="Ellipse 560"
         class="cls-13"
         cx="1.962"
         cy="1.962"
         transform="translate(146.444,99.462)"
         r="1.962" />
      <path
         id="Path_3649"
         data-name="Path 3649"
         class="cls-16"
         d="m 15.267,74.531 c 0,0 -5.58,32.375 -9.4,33.968 C 2.047,110.092 0,91.289 0,80.9 0,36.331 21.1,0.467 101.894,0.2 c 80.794,-0.267 101.893,36.131 101.893,80.7 0,9.36 -0.772,33.7 -7.221,27.6 -6.449,-6.1 -18.576,-52.033 -18.576,-52.033 0,0 -1.968,11.133 -10.141,18.064 -8.173,6.931 -42.092,-27.112 -42.092,-27.112 0,0 -31.243,46.232 -44.58,33.481 C 67.84,68.149 63.825,56.467 63.825,56.467 c 0,0 -23.888,25.926 -34.662,30.442 C 18.389,91.425 15.267,74.531 15.267,74.531 Z"
         transform="translate(11.193,-0.197)" />
      <path
         id="Path_3687"
         data-name="Path 3687"
         class="cls-18"
         d="m 74.778,2.636 c 44.084,11.053 57.057,40.975 57.057,75.919 0,9.36 -0.772,33.7 -7.221,27.6 -6.449,-6.1 14.597,-65.985 -49.836,-103.519 z"
         transform="translate(83.145,2.15)" />
      <path
         id="Path_3688"
         data-name="Path 3688"
         class="cls-18"
         d="m 102.519,28.874 c 0,0 -1.968,11.126 -10.141,18.063 -1.986,1.685 -5.823,1.478 -13.942,-3.56 12.24,0.785 24.083,-14.503 24.083,-14.503 z"
         transform="translate(86.664,27.396)" />
      <path
         id="Path_3689"
         data-name="Path 3689"
         class="cls-18"
         d="m 88.387,24.263 c 0,0 -31.244,46.231 -44.581,33.484 -1.667,-1.593 -3.189,-3.17 -4.968,-5.15 17.131,4.52 49.549,-28.334 49.549,-28.334 z"
         transform="translate(48.564,22.959)" />
      <path
         id="Path_3690"
         data-name="Path 3690"
         class="cls-18"
         d="m 55.127,28.874 c 0,0 -23.889,25.926 -34.663,30.442 C 14.948,61.628 11.437,58.328 9.04,54.03 22.037,54.251 55.127,28.874 55.127,28.874 Z"
         transform="translate(19.892,27.396)" />
      <path
         id="Path_3691"
         data-name="Path 3691"
         class="cls-18"
         d="m 14.275,38.08 c 0,0 -5.58,32.375 -9.4,33.968 C 3.348,72.685 2.104,70.059 1.028,65.428 6.4,62.148 14.275,38.08 14.275,38.08 Z"
         transform="translate(12.185,36.254)" />
    </g>
  </g>
</svg>
