<?xml version="1.0" encoding="UTF-8" standalone="no"?>
<svg
   id="Laag_1"
   data-name="Laag 1"
   viewBox="0 0 373424.86 1078111.2"
   version="1.1"
   width="373424.88"
   height="1078111.1"
   xmlns="http://www.w3.org/2000/svg">
  <defs
     id="defs3094">
    <style
       id="style3092">
      .cls-1 {
        fill: #fff;
      }

      .cls-2 {
        fill: #e19e82;
      }

      .cls-3 {
        fill: #028151;
      }

      .cls-4 {
        fill: #e69674;
      }

      .cls-5 {
        fill: #ddd5d2;
      }

      .cls-6 {
        fill: #cf1915;
      }

      .cls-7 {
        fill: #3d3533;
      }

      .cls-8 {
        fill: #e5a451;
      }

      .cls-9 {
        fill: #333d63;
      }

      .cls-10 {
        fill: #039960;
      }

      .cls-11 {
        fill: #e8b29b;
      }

      .cls-12 {
        fill: #b57e67;
      }

      .cls-13 {
        fill: #edb9a3;
      }

      .cls-14 {
        fill: #ecac5a;
      }

      .cls-15 {
        fill: #df1a16;
      }

      .cls-16 {
        fill: #263056;
      }

      .cls-17 {
        fill: #322a28;
      }

      .cls-18 {
        fill: #ccb050;
      }

      .cls-19 {
        fill: #e8a68a;
      }
    </style>
  </defs>
  <g
     id="karakter-man_3"
     data-name="karakter-man 3"
     transform="translate(0,-6.9214784)">
    <g
       id="Group_8274"
       data-name="Group 8274">
      <path
         id="Path_3650"
         data-name="Path 3650"
         class="cls-19"
         d="m 310.05,483.26 c -30.97,-0.27 -50.46,-15.95 -48.52,-25.34 5.52,-9.15 5.43,-18.48 5.43,-29.05 0,-34.31 2.18,-62.45 43.09,-62.66 40.91,-0.2 43.26,28.35 43.26,62.66 0,9.09 -0.73,19.48 5.21,28.65 2.58,9.39 -15.58,26.03 -48.46,25.74 z" />
      <path
         id="Path_3624"
         data-name="Path 3624"
         class="cls-19"
         d="m 546.29,229.98 -20.67,119.44 c 0,0 47.3,0.02 56.56,-53.5 9.26,-53.51 -35.89,-65.95 -35.89,-65.95 z" />
      <path
         id="Path_3623"
         data-name="Path 3623"
         class="cls-19"
         d="m 73.76,229.98 20.67,119.44 c 0,0 -47.3,0.02 -56.56,-53.5 -9.26,-53.51 35.89,-65.95 35.89,-65.95 z" />
      <path
         id="Path_3620"
         data-name="Path 3620"
         class="cls-13"
         d="M 310.03,451.53 C 102.3,450.18 70.46,380.69 70.46,262.79 70.46,144.89 120.08,50.02 310.03,49.32 499.98,48.61 549.6,144.9 549.6,262.8 c 0,117.9 -31.83,190.09 -239.57,188.74 z" />
      <path
         id="Path_3648"
         data-name="Path 3648"
         class="cls-19"
         d="m 310.03,349.42 c -16.43,-0.11 -18.95,-5.6 -18.95,-14.93 0,-9.33 3.92,-16.83 18.95,-16.88 15.03,-0.05 18.95,7.56 18.95,16.88 0,9.32 -2.52,15.03 -18.95,14.92 z" />
      <ellipse
         id="Ellipse_561"
         data-name="Ellipse 561"
         class="cls-4"
         cx="139.98"
         cy="376.45001"
         rx="11.86"
         ry="16.6"
         transform="rotate(-48,139.97954,376.44741)" />
      <ellipse
         id="Ellipse_562"
         data-name="Ellipse 562"
         class="cls-4"
         cx="480.07001"
         cy="376.45001"
         rx="16.6"
         ry="11.86"
         transform="rotate(-42,480.06941,376.44118)" />
    </g>
  </g>
</svg>
